<svg preserveAspectRatio="xMinYMin meet"
     width="150"
     height="355"
     viewBox="5 12 150 355" xmlns="http://www.w3.org/2000/svg">
    <defs>
        <style type="text/css"><![CDATA[
        svg {
            fill:lightgreen;
             -moz-transition: fill .5s;
            -o-transition: fill .5s;
            -webkit-transition: fill .5s;
            transition: fill .5s;
        }
        svg:hover {
            fill:red;
        }
        path {
            stroke: #000000;
            stroke-width: 5;
        }
        .beaker-lines-large {
            opacity: .4;
            stroke-width: 3;
        }
        .beaker-lines-small {
            opacity: .2;
            stroke: red;
            stroke-width: 3;
        }
        ]]></style>
      </defs>
    <g>
		<title>Beaker - 4 - Readable from Source</title>

        <!-- main beaker shape -->
		<path class="beaker-body" d="
		M 50,25
		m 60,0
		v 200
		c 30,10 50,70 40,70
        h -140
		c -10,0 10,-60 40,-70
		v -200
		"
		/>

        <!-- horizontal curves of beaker -->
        <path class="beaker-body" d="
		M 50,25
	    a 30,10 0 1,1 0,.1
        m 103,266
        a 10,10 0 0,1 -146,0
        m 42,-66
        a 30,10 0 0,0 60,0
		"
		/>

        <!-- large measuring lines -->
		<path class="beaker-lines-large" d="
		M 50,25
		m 0,30
		a 30,10 0 0,0 60,0
		m -60,30
		a 30,10 0 0,0 60,0
		m -60,30
		a 30,10 0 0,0 60,0
		m -60,30
		a 30,10 0 0,0 60,0
		m -60,30
		a 30,10 0 0,0 60,0
		m -60,30
		a 30,10 0 0,0 60,0
		"
		/>

        <!-- small measuring lines -->
		<path class="beaker-lines-small" d="
		M 50,25
		m 30,10
		m 0,10
		a 30,10 0 0,0 30,-10
		m -30,20
		a 30,10 0 0,0 30,-10
		m -30,30
		a 30,10 0 0,0 30,-10
		m -30,20
		a 30,10 0 0,0 30,-10
		m -30,30
		a 30,10 0 0,0 30,-10
		m -30,20
		a 30,10 0 0,0 30,-10
		m -30,30
		a 30,10 0 0,0 30,-10
		m -30,20
		a 30,10 0 0,0 30,-10
		m -30,30
		a 30,10 0 0,0 30,-10
		m -30,20
		a 30,10 0 0,0 30,-10
		m -30,30
		a 30,10 0 0,0 30,-10
		m -30,20
		a 30,10 0 0,0 30,-10
		m -30,30
		a 30,10 0 0,0 30,-10
		"
		/>
	</g>
</svg>