<?xml version="1.0" encoding="UTF-8" standalone="no"?>
<!-- Created with Inkscape (http://www.inkscape.org/) -->

<svg
   xmlns:dc="http://purl.org/dc/elements/1.1/"
   xmlns:cc="http://creativecommons.org/ns#"
   xmlns:rdf="http://www.w3.org/1999/02/22-rdf-syntax-ns#"
   xmlns:svg="http://www.w3.org/2000/svg"
   xmlns="http://www.w3.org/2000/svg"
   version="1.1"
   width="300"
   height="103.05115"
   viewBox="0 0 300 103.05115"
   id="svg5588">
  <defs
     id="defs5590" />
  <metadata
     id="metadata5593">
    <rdf:RDF>
      <cc:Work
         rdf:about="">
        <dc:format>image/svg+xml</dc:format>
        <dc:type
           rdf:resource="http://purl.org/dc/dcmitype/StillImage" />
        <dc:title></dc:title>
      </cc:Work>
    </rdf:RDF>
  </metadata>
  <g
     transform="translate(35.714291,-549.40804)"
     id="layer1">
    <g
       transform="matrix(0.69759798,0,0,0.69759798,266.74569,633.46713)"
       id="g5557">
      <path
         d="m -397.76055,-117.60102 c -2.33,5.82875 -0.12875,4.1525 -0.7275,5.945 -0.60125,1.795 -1.46125,6.20125 1.04875,6.5725 1.79,0.26875 0.75125,3.5875 0.75125,3.5875 -3.6,-0.5975 -12.595,-2.39125 -16.1925,0.29875 -3.59875,2.68875 -5.3975,4.77875 -7.195,5.07875 -1.79875,0.29875 -3.89875,2.09125 -4.7975,3.2875 -0.9,1.19375 -3.28625,5.69625 -2.99875,7.76875 2.09875,15.2375 -2.40875,27.21375 -5.39875,34.6575 -1.1975,2.98875 1.50125,7.17125 2.1,8.665 0.60125,1.4925 2.09875,2.68875 1.8,4.18375 -0.3,1.4925 -1.19875,6.27375 -1.19875,7.76875 0,1.4925 0.59875,3.8825 1.4975,4.78 0.89875,0.89625 1.2,2.68875 1.49875,3.88375 0.3,1.195 4.79875,6.57375 8.39625,6.8725 3.5975,0.29875 6.59625,-0.59875 8.395,0 1.79875,0.5975 6.59625,1.19375 8.995,-0.59875 2.3975,-1.7925 2.99875,-2.9875 4.4975,-3.585 1.5,-0.5975 2.9975,-2.68875 3.5975,-3.88375 0.6,-1.19625 2.39875,-2.0925 3,0.5975 0.59875,2.68875 0,8.66375 -1.5,11.35375 -1.5,2.68875 -6.8975,8.36625 -1.5,13.14625 5.3975,4.78 8.995,5.97625 11.09375,10.75625 2.09875,4.78 1.315,7.12375 4.4975,11.3525 1.8,2.3925 11.99375,3.58625 11.395,-2.6875 -0.285,-2.975 -1.5,-6.5725 -0.60125,-8.06875 0.90125,-1.4925 2.7,-6.8725 -1.1975,-9.85875 -3.89875,-2.98625 -7.1975,-5.6775 -5.39875,-8.9625 1.8,-3.2875 -1.2,-8.06875 -3.5975,-10.46 -2.39875,-2.38875 -5.69625,-6.57125 -5.3975,-9.56 0.3,-2.9875 1.2,-4.18125 0,-5.97375 -1.1975,-1.795 -0.29875,-3.5875 0.3,-5.97625 0.60125,-2.39125 0.30125,-9.86 -0.3,-12.84875 -0.59875,-2.9875 0,-9.2625 1.80125,-11.3525 1.7975,-2.0925 8.39375,-11.35625 9.89375,-13.745 2.9975,-4.78 0.51,-10.73875 -4.1975,-4.48125 -9.895,13.14625 -10.795,16.43375 -22.78875,16.13375 -8.99625,-0.225 -11.3925,8.96375 -2.09875,7.46875 3.1875,-0.5125 4.7975,-0.89625 4.7975,1.19625 0,2.09125 -0.6,8.365 -1.49875,11.95125 -0.9,3.585 -0.9,5.08 -0.9,9.2625 0,9.26125 -5.39625,8.66375 -8.695,6.5725 -3.29875,-2.09125 -7.495,-4.18125 -7.19625,-9.56125 0.3,-5.3775 0.3,-12.8475 -1.49875,-14.34125 -1.8,-1.49375 -2.95125,-4.0975 -0.89875,-4.78 3.5975,-1.19625 3.8975,-5.08 2.09875,-11.9525 -1.80125,-6.87125 -0.90125,-9.56 0.29875,-12.84625 1.2,-3.28625 2.4475,-4.1875 2.09875,-7.7675 -0.89875,-9.26375 17.25875,-9.54625 14.6925,-0.59875 -0.59875,2.09125 -3.30625,8.51625 1.2,7.7675 1.79875,-0.29875 3.29625,0 4.19625,1.495 0.90125,1.49375 4.7975,2.9875 6.59625,0.5975 1.8,-2.39125 4.4975,-5.67625 3.59875,-9.86 -0.89875,-4.1825 -1.5,-7.76875 -0.89875,-9.86125 0.59875,-2.09 -1.79875,-5.97375 -2.99875,-8.06625 -1.2,-2.09125 -4.3575,-3.74125 -4.34875,-11.6 0.005,-3.4575 -6.5575,-3.6225 -8.11625,0.27625"
         id="path4216"
         style="fill:#000000;fill-opacity:1;fill-rule:nonzero;stroke:none" />
      <path
         d="m -358.6893,-75.48727 c 4.1975,-0.29875 9.295,0.2975 11.39375,1.7925 0.88,0.625 2.09875,1.7925 3.5975,2.39 1.5,0.59625 2.99875,2.39125 3.29875,3.2875 0.3,0.89625 0.3,1.7925 1.49875,3.285 1.2,1.49375 1.2,4.48375 0.9,6.57375 -0.38125,2.66125 0,5.37875 0.6,7.76875 0.59875,2.39 0,8.36625 -1.2,11.055 -1.19875,2.68875 -0.3,6.5725 0,8.365 0.3,1.7925 0.3,5.97625 0,6.8725 -1.67875,5.02375 -7.495,8.0675 -13.1925,7.7675 -2.41375,-0.12625 -10.195,-0.2975 -13.49125,-0.895 -3.3,-0.5975 -6.8975,-4.48125 -7.49625,-6.8725 -0.6,-2.39 -1.5,-3.585 -2.69875,-5.6775 -1.20125,-2.09125 -1.8,-7.17125 -1.49875,-9.2625 0.2975,-2.09 2.9975,-11.05375 3.2975,-12.54625 0.3,-1.49625 0.3,-2.69125 -0.6,-4.48375 -0.89875,-1.7925 0.7275,-5.82 2.99875,-8.365 1.47375,-1.6525 3.44625,-4.40375 4.49625,-5.97625 1.8,-2.68875 3.89875,-4.78125 8.09625,-5.07875 z m -2.69875,10.755 c -0.44375,2.3675 0.3,12.25125 0.9,14.3425 0.59875,2.09125 1.93875,9.20375 0.29875,11.65125 -2.9975,4.48375 -2.36125,8.39375 0,11.65375 3.89875,5.37875 7.705,4.9575 9.29625,0.5975 1.2,-3.2875 0.59875,-5.975 0.59875,-8.0675 0,-2.09125 1.5,-3.88375 0.30125,-5.08 -1.2,-1.19375 -4.19875,-6.5725 -2.1,-10.755 2.1,-4.1825 2.4,-7.47 0.59875,-10.15875 -1.79875,-2.69 -1.67375,-3.93875 -2.3975,-5.37875 -1.2,-2.39 -6.59625,-3.585 -7.49625,1.195"
         id="path4218"
         style="fill:#000000;fill-opacity:1;fill-rule:nonzero;stroke:none" />
      <path
         d="m -318.4593,-73.25477 c 1.49875,0 1.49875,0.29875 5.0975,-0.89625 3.59875,-1.195 11.6925,1.4925 13.19375,4.48125 0.78125,1.5575 1.7975,3.58625 1.7975,4.78 0,1.2325 1.5,5.97625 2.39875,6.57375 0.9,0.5975 1.49875,2.09125 1.49875,3.8825 0,1.795 0,10.75875 -0.59875,12.84875 -0.6,2.0925 -0.9,5.08 -1.5,7.76875 -0.59875,2.68875 -1.575,8.29875 -3.29875,12.64875 -1.4975,3.78375 -4.99625,4.78 -7.995,4.38125 -2.675,-0.355 -4.5975,-0.2975 -8.195,0.29875 -7.2025,1.1975 -10.195,-4.78 -12.59375,-9.85875 -0.97125,-2.05875 -1.79875,-3.58625 -3.29625,-5.6775 -1.5,-2.09125 -0.90125,-7.76875 0,-10.4575 0.89875,-2.68875 0.2975,-8.9625 0.2975,-11.6525 0,-2.68875 0.60125,-6.2725 1.50125,-8.365 0.89875,-2.09125 5.89875,-5.83 7.795,-8.665 0.59875,-0.89625 2.3975,-2.09125 3.8975,-2.09125 z m 0,14.0425 c 0.92,2.5975 0.6,4.1825 0.6,5.37875 0,1.195 0.33375,4.08875 0.59875,5.67625 0.60125,3.585 -0.66625,9.67375 -1.19875,12.84875 -0.29875,1.7925 -1.19875,6.27375 1.49875,9.85875 2.69875,3.58625 8.59625,5.27875 10.79375,-7.76875 0.20625,-1.215 0.39875,-4.84375 -0.59875,-6.27375 -3.19875,-4.5825 -3.31125,-8.1875 -1.69875,-17.03125 0.59875,-3.28625 -1.755,-5.45875 -3.09875,-6.57375 -3.59875,-2.98625 -8.695,-1.195 -6.89625,3.885"
         id="path4220"
         style="fill:#000000;fill-opacity:1;fill-rule:nonzero;stroke:none" />
      <path
         d="m -266.8618,-80.77602 c -0.8675,2.42 -2.59875,6.37375 -5.3975,3.585 -1.19875,-1.195 -3.5975,-1.7925 -5.39625,-0.89625 -1.8,0.89625 -3.305,1.23 -5.0975,0.89625 -4.79875,-0.89625 -9.3625,3.43125 -8.395,7.76875 0.6,2.68875 1.2,4.78 1.49875,6.87125 0.3,2.09125 -3.45625,7.36 0,11.95 1.79875,2.3925 4.4375,3.28875 7.49625,3.28875 2.6975,0 6.59625,1.79125 7.19625,5.37625 0.6,3.5875 -0.0312,5.38375 0.29875,7.76875 1.2,8.665 -5.1975,11.10375 -7.79625,6.57375 -1.1975,-2.09125 -2.09875,-6.5475 -2.09875,-8.36625 0,-4.48125 -4.41,-4.7875 -4.19625,-1.7925 0.29875,4.18375 -0.6,6.8725 -1.5,8.96375 -0.89875,2.0925 -1.49875,3.28625 -2.09875,4.18375 -0.59875,0.89625 -1.1975,2.39 -0.29875,3.585 0.89875,1.195 0.59875,2.0925 0,2.98875 -0.60125,0.89625 -2.7,5.0775 -2.09875,6.5725 0.59875,1.4925 0.415,2.785 -0.60125,3.88375 -3.5975,3.885 -4.79625,10.75625 -0.3,10.75625 2.41875,0 3.74125,1.335 5.09875,2.68875 2.3975,2.39125 7.495,0 6.29625,-4.78 -0.75875,-3.02625 -3.3825,-14.35375 -2.99875,-17.03 0.3,-2.09125 1.82625,-4.21375 3.8975,-2.39125 5.0975,4.4825 9.7325,4.665 11.39375,3.2875 1.7975,-1.495 2.9975,-2.9875 3.59875,-3.5875 0.59875,-0.59625 2.09875,-0.89625 3.2975,-0.89625 1.19875,0 4.1975,-2.98625 4.49875,-5.975 0.2975,-2.9875 -0.9,-13.14625 -0.60125,-15.2375 0.3,-2.0925 -1.40125,-7.005 -2.99875,-8.06625 -1.79875,-1.195 -3.29625,-3.2875 -3.8975,-4.4825 -0.59875,-1.195 -1.78,-3.07 -4.1975,-3.585 -12.59125,-2.69 -8.695,-11.9525 -2.9975,-10.4575 0,0 2.09875,0.895 3.2975,0.2975 1.2,-0.59625 3.94,0.59375 4.1975,2.9875 0.9,8.3675 6.59625,8.79125 6.59625,2.98875 0,-2.38875 -2.09875,-6.5725 -2.69875,-8.665 -0.59875,-2.09 -1.0925,-4.41875 0.3,-6.87125 5.0975,-8.96375 -1.79875,-8.36625 -3.2975,-4.1825"
         id="path4222"
         style="fill:#000000;fill-opacity:1;fill-rule:nonzero;stroke:none" />
      <path
         d="m -239.8768,-76.94602 c 3.66625,2.28625 4.13,-0.0275 6.29625,-0.2975 2.3975,-0.29875 7.19625,1.7925 7.19625,5.37875 0,1.52375 0.6,2.9875 1.5,3.88375 0.89875,0.89625 0.89875,2.9875 0.59875,5.3775 -0.3,2.39 0,4.18375 1.49875,4.78125 1.49875,0.5975 0.7925,1.92625 -0.3,3.28625 -2.39875,2.9875 -9.29375,5.37875 -13.49125,7.17125 -4.19875,1.7925 -4.19875,4.4825 -4.19875,6.5725 0,2.09125 -0.59875,4.78125 -0.89875,5.97625 -0.3,1.19625 -0.6,4.48125 -0.3,6.5725 0.46875,3.2675 3.5975,4.78125 5.09625,-0.2975 0.6175,-2.08625 2.69875,-4.1825 3.8975,-4.78125 1.2,-0.5975 3.29875,-3.885 3.29875,-5.37875 0,-1.4925 -0.0312,-3.065 1.49875,-4.93 2.69875,-3.285 7.79625,-2.39 4.19875,5.8275 -2.30625,5.26625 -1.1775,12.05125 -0.3,14.0425 3.7475,8.515 -2.9975,11.5025 -6.59625,6.57375 -1.42125,-1.94875 -5.73875,-0.77625 -8.695,0 -5.6975,1.4925 -9.895,-0.5975 -12.2925,-4.18375 -1.11625,-1.66875 -1.80125,-3.28625 -3.29875,-4.78 -2.8525,-2.8425 -1.79875,-8.365 -0.9,-12.25 0.405,-1.7475 -0.09,-2.9025 -1.49875,-4.48125 -2.39875,-2.69 0,-6.57375 0.89875,-8.36625 2.9275,-5.83375 3.29875,-11.355 3.59875,-17.0325 0.4175,-7.9275 9.59375,-10.90375 13.1925,-8.665 z m -4.1975,12.2525 c 0.46125,2.18125 2.9475,5.38125 1.6475,8.9625 -1.9475,5.37875 0,6.7225 2.1,4.03375 0.92125,-1.17875 2.84875,-1.9425 4.04875,-1.9425 3.5975,0 4.19625,-2.68875 2.6975,-3.585 -1.49875,-0.89625 -2.46625,-2.98875 -2.39875,-4.78125 0.15,-3.88375 -0.9,-5.37625 -2.1,-6.5725 -2.56,-2.5525 -7.195,-1.79375 -5.995,3.885"
         id="path4224"
         style="fill:#000000;fill-opacity:1;fill-rule:nonzero;stroke:none" />
      <path
         d="m -202.3968,-25.82977 c -3.39875,1.39375 -5.9275,-3.695 -3.39875,-4.95625 1.6,-0.79375 2.99875,-3.9825 2.3975,-4.9775 -0.59875,-0.99625 -1.5975,-3.1875 -0.19875,-5.5775 1.03625,-1.7725 1.32875,-6.84375 -0.2,-8.365 -2.39875,-2.39125 -2.79875,-6.375 -1.79875,-7.57125 0.99875,-1.195 1.405,-2.7625 1.59875,-5.17875 0.8,-9.95875 8.79625,-6.97125 8.195,-2.58875 -0.43125,3.1575 1.16875,6.71125 2.19875,8.16625 2.4,3.38625 2.19875,9.76125 1.6,11.95125 -0.6,2.1925 -1.00125,3.58625 -0.8,5.17875 0.2,1.59375 0.2,10.95625 -4.79625,12.35 -1.5875,0.44375 -3.675,1.1075 -4.7975,1.56875 z m 20.38875,-4.55625 c 1.6475,-4.48125 -0.15125,-20.01875 -0.60125,-21.81125 -0.45,-1.7925 -1.79875,-6.72375 -1.9475,-9.1125 -0.15125,-2.39125 0.19875,-4.3725 -0.45,-8.515 -0.75,-4.78125 -4.3475,-7.76875 -7.49625,-7.62125 -0.89875,0.045 -2.25,-0.44625 -3.7475,-0.895 -2.545,-0.75875 -7.04625,0.15 -9.145,2.69 0.29875,-1.495 0.14875,-10.6075 -0.45,-13.29625 -0.6,-2.69 2.57875,-5.86375 2.99875,-7.62 1.49875,-6.27375 -4.4975,-7.02 -6.59875,-1.4925 -1.46875,3.87375 -7.0175,6.39 -12.34125,6.92125 -3.9975,0.3975 -4.5975,6.37375 -1,5.3775 1.935,-0.53625 3.59875,1.9925 3.59875,2.9875 0,0.99625 0.8,3.78625 1.39875,4.98 0.6,1.195 1.19875,4.1825 0.6,5.97625 -0.6,1.7925 -1.6,4.58125 -1.80125,5.975 -0.1975,1.39375 0.20125,5.97625 0.4025,6.9725 0.2,0.99625 0.79875,2.39 1.59875,2.78875 0.79875,0.39875 1.9475,1.6375 1.3975,3.18625 -1.19875,3.38625 -2.07625,7.3925 -0.99875,11.155 0.4,1.39375 0,5.5775 -0.59875,7.5675 -0.6,1.99375 -1.19875,9.725 -1.19875,11.9525 0,5.5775 4.19625,5.17875 5.19625,4.18375 0.99875,-0.99625 2.83375,-1.95625 4.7975,0 1.79875,1.7925 3.95375,2.5375 6.59625,0.39875 3.19875,-2.59 7.795,0.3975 7.19625,3.58375 -2.5075,13.32625 7.62625,9.91125 8.395,5.97625 1.615,-8.26375 -0.74375,-13.29625 -3.98125,-16.08625 4.79625,2.39 7.20625,-3.575 8.18,-6.2225"
         id="path4226"
         style="fill:#000000;fill-opacity:1;fill-rule:nonzero;stroke:none" />
      <path
         d="m -179.91555,-71.33227 c 1.66625,0.64375 3.7975,-0.09875 3.7975,4.38375 0,2.58875 -0.2075,7.4025 -0.60125,9.1625 -0.4,1.7925 -0.89875,3.385 -0.99875,7.36875 -0.0625,2.4925 0,4.88125 2.1,4.4825 1.24125,-0.235 1.0975,2.09125 0.89875,3.0875 -0.2,0.99625 -1.48,12.3325 -2,14.94 -2.19875,11.055 15.59125,16.4325 22.1875,6.97125 1.6975,-2.4325 5.39875,-0.5975 4.79875,1.7925 -0.79,3.145 -1.3,6.8725 -0.6,9.3625 1.16375,4.14125 9.595,2.88375 8.19625,-3.38625 -0.8,-3.58625 -2.41375,-11.78875 0.39875,-18.925 2.19875,-5.57625 2.39875,-14.54125 -0.19875,-25.29625 -0.8025,-3.31375 -1.56375,-16.88875 4.19625,-21.91 4.7975,-4.18375 -0.645,-10.59625 -4.39625,-4.78 -1.79875,2.78625 -4.59875,5.5775 -7.9975,6.17375 -2.43375,0.42875 -4.99375,2.6975 -5.995,3.585 -1.80125,1.59375 -1.785,5.0775 1.19875,4.5825 2.39875,-0.39875 3.55625,2.5175 2.59875,5.3775 -0.8,2.39125 -3.19875,6.7725 -2.2,10.35875 0.495,1.76875 1.00125,3.385 0.20125,4.97875 -0.8,1.595 -3.19875,6.5725 -1.2,8.565 0.99875,0.99625 1.6225,2.36625 1.6,3.1875 -0.4,14.54125 -10.09125,12 -11.7925,5.77625 -0.60125,-2.1925 0.28875,-3.5875 1.69625,-3.28625 1.40125,0.29875 2.1625,-0.29 2.3,-1.495 0.9,-7.8675 -2.19875,-12.25 -2.5975,-17.5275 -0.20625,-2.70125 0.39875,-6.57375 0.99875,-8.16625 0.59875,-1.595 1.59875,-5.27875 0.9975,-8.765 -0.37125,-2.16875 -0.0637,-5.21875 0.80125,-6.57375 2.79875,-4.38125 -2.1875,-5.945 -3.79875,-3.985 -3.5975,4.3825 -6.89875,5.64625 -10.2925,5.48 -6.09625,-0.3 -7.39625,3.2875 -4.2975,4.48"
         id="path4228"
         style="fill:#000000;fill-opacity:1;fill-rule:nonzero;stroke:none" />
      <path
         d="m -134.7418,-58.38477 c -0.2,5.77875 -2.99875,8.1675 -0.4,15.5375 0.74125,2.1 1.6,4.58125 1.6,6.175 0,1.5925 -0.20125,8.36625 -0.6,9.96 -0.40125,1.5925 -0.0888,2.74 -1.4,3.585 -3.39875,2.19125 -6.61125,7.17 -1.6,7.17 1.6,0 3.99875,-0.39875 4.99875,-0.99625 0.99875,-0.59625 4.44125,-0.8675 5.7975,0 8.395,5.37875 12.59125,-0.995 8.19375,-3.785 -2.7225,-1.72625 -4.79625,-4.38125 -4.195,-8.9625 0.44,-3.37375 2.19625,-9.16375 0.9975,-13.545 -0.58625,-2.14875 -1.19875,-6.175 -0.8,-7.76875 0.4,-1.59125 1.20125,-6.16125 1.20125,-7.5675 0,-3.38625 4.99625,-8.36625 7.19375,-0.20125 0.36375,1.3475 -0.59875,6.77375 -0.99875,7.97 -0.4,1.19375 -2.79875,6.5725 -0.59875,7.96625 1.13125,0.7175 2.59875,2.19125 2.19875,4.3825 -0.215,1.175 -0.4,5.37875 0.19875,6.7725 0.6,1.39375 1.4,3.58375 3.39875,3.58375 0.8,0 2.67,-0.84375 2.59875,0.7975 -0.2,4.5825 4.1975,7.58 4.1975,-0.1975 0,-1.7925 0.93125,-5.9575 0.4,-7.97 -1,-3.78375 -1.19875,-10.555 0.99875,-15.335 1.19375,-2.59375 1,-7.36125 1,-9.36375 0,-3.18625 2.39375,-4.445 4.3975,0.7975 1.59875,4.18375 0.79875,12.9475 -0.39875,18.525 -0.47,2.1775 -1.40125,4.78 0.19875,5.37625 0.95375,0.35875 2.19875,0.59875 1.6,3.38625 -0.33625,1.55875 0,4.98125 -0.20125,6.175 -0.19875,1.19625 -0.31,4.32375 -1.79875,5.17875 -5.1975,2.98875 -5.79625,6.97375 2.19875,4.5825 2.49,-0.7425 5.9225,-1.16 9.99375,0 4.19875,1.19625 9.39625,-2.9875 5.1975,-7.17125 -2.03875,-2.03125 -2.99875,-3.78375 -2.99875,-7.9675 0,-1.59375 0,-2.78875 1.00125,-3.38625 0.99875,-0.5975 1.9975,-3.585 0.59875,-8.9625 -0.65375,-2.5075 -2.19875,-5.37875 -2,-9.76 0.13875,-2.9925 0.8,-12.9475 0.20125,-15.7375 -0.6,-2.7875 -3.61125,-9.10125 -8.995,-8.56375 -1.99875,0.19875 -3.39875,0.59625 -4.7975,0.19875 -1.4,-0.39875 -3.9975,-0.7975 -4.7975,0.59625 -0.8,1.395 -3.705,5.34125 -3.7975,7.37125 -0.2,4.3825 -2.72875,4.55375 -2.19875,-0.5975 0.8,-7.76875 -5.59125,-7.67125 -7.19625,-6.77375 -3.19875,1.795 -7.6775,2.25875 -4.1975,-3.9825 1.9975,-3.585 -3.1625,-8.13625 -6.9975,0.59875 -1.39875,3.185 -2.5975,6.77125 -8.19375,8.96125 -2.7475,1.07625 -4.68625,4.0325 -5.5975,5.97625 -1.3975,2.98875 0,4.78 1.79875,3.18875 2.92625,-2.5925 2.71125,0.55125 2.59875,3.7825"
         id="path4230"
         style="fill:#000000;fill-opacity:1;fill-rule:nonzero;stroke:none" />
      <path
         d="m -66.38055,-80.29352 c 1.50375,-3.9525 5.89625,-0.59875 3.69875,1.7925 -2.0975,2.27875 1.61375,4.5625 2.09875,2.38875 1.6,-7.17125 17.59,-3.38625 16.79,5.97625 -0.22,2.58 0.89125,5.8 1.8,9.56 2.59875,10.7575 6.19625,18.725 0.19875,25.0975 -3.01,3.20125 -1.9375,7.9475 -2.19875,10.16 -0.39875,3.38625 -3.9975,5.77625 -5.995,6.175 -2,0.3975 -5.7975,0.3975 -8.39625,0.29875 -3.6,-0.1375 -4.6475,4.2925 -4.3975,5.4775 0.8,3.78375 0.6,8.56625 -0.4,11.5525 -0.89375,2.6725 1.99875,4.38125 3.9975,4.98 1.99875,0.5975 2.4,3.58625 1.79875,3.98375 -0.59875,0.39875 -1.19875,0.995 -1.39875,2.59 -0.19875,1.59375 -3.1975,4.78 -5.5975,4.78 -2.39625,0 -4.1125,1.835 -4.59625,3.1875 -0.99875,2.78875 -2.79875,3.1875 -4.3975,2.39 -1.2525,-0.62375 -2.39875,0.995 -3.19875,2.19125 -6.82875,10.2075 -12.9925,1.9925 -10.39375,-1.595 1.36875,-1.88875 -0.15875,-3.97125 -1.6,-5.575 -3.39625,-3.785 6.48,-7.59875 9.195,-8.56625 2.79875,-0.99625 3.59875,-4.1825 3.99875,-7.76875 0.24375,-2.1875 1.99875,-24.30125 1.99875,-26.69 0,-1.595 -1.19875,-3.785 -1.79875,-4.98125 -1.96125,-3.90625 -0.25,-6.075 0.39875,-10.755 0.3025,-2.18 0.8,-14.3425 1.00125,-16.53375 0.19875,-2.19 -1.71125,-2.11 -3.2,-1.79125 -2.7975,0.59625 -2.76,-4.2925 0.8,-6.8725 2.19875,-1.59375 7.59625,-5.6775 9.79375,-11.4525 z m 3.39875,23.105 c 1.0175,2.7175 1.4,4.97875 1.19875,6.5725 -0.19875,1.59375 0,4.98125 0.4,6.375 0.4,1.39375 0.89,5.735 0.4,7.17125 -3.7975,11.1525 5.1975,14.14125 5.9975,5.17875 0.22375,-2.51125 0.93875,-5.59625 1.39875,-6.97375 1,-2.98625 0,-6.77 -0.59875,-9.16125 -0.60125,-2.39125 -2.38625,-9.0375 -1.40125,-13.14625 2.19875,-9.16375 -11.7925,-7.76875 -7.395,3.98375"
         id="path4232"
         style="fill:#000000;fill-opacity:1;fill-rule:nonzero;stroke:none" />
      <path
         d="m -33.29805,-73.12352 c -0.24375,2.66125 1.39875,3.78375 -0.59875,6.37375 -3.92625,5.085 -1.9,11.75125 0.9,13.145 2.23875,1.1175 6.995,4.3825 6.195,7.1725 -0.45125,1.5775 -1.24875,4.78 1,6.5725 9.84,7.845 0.44875,14.64125 -3.8,5.97625 -0.82625,-1.68875 -1.95875,-4.59375 -2.39625,-5.97625 -1.20125,-3.78375 -4.19875,-2.38875 -4.9975,-0.39875 -0.8,1.9925 -0.8,5.20875 0.2,6.5725 2.14875,2.93875 1.11125,10.47125 -1.10125,12.9475 -13.69,15.33875 8.6975,24.1025 6.2975,9.86 -0.47375,-2.8125 -0.60125,-8.8625 -0.60125,-10.2575 0,-1.395 1.00125,-2.58875 1.80125,-1.7925 0.7975,0.79625 1.29875,1.99625 1.2,2.9875 -0.20125,1.9925 1.8125,4.43625 7.595,2.79 1.39875,-0.39875 5.8175,-2.55375 7.995,-2.1925 3.5975,0.5975 4.26625,-0.58125 6.6975,-4.77875 1.4975,-2.59 0.81,-13.0575 0.29875,-17.13125 -0.40125,-3.1875 -1.99875,-4.5825 -3.9975,-5.38 -1.0825,-0.42875 -3.7425,-2.83875 -4.3975,-6.97125 -0.59875,-3.78375 -3.3625,-6.37125 -5.5975,-8.36375 -3.79875,-3.3875 -2.7975,-11.155 1.2,-7.76875 0.86,0.72875 2.39875,1.79125 2.59875,2.9875 0.19875,1.19625 2,5.77625 3.9975,7.37 1.99875,1.59375 3.94625,2.87125 4.39625,4.78 0.8,3.38625 3.79875,4.78125 4.7975,-0.39875 0.34125,-1.76 -0.32625,-4.39875 -1.49875,-5.975 -3.9975,-5.3775 -3.8975,-8.565 -2.49875,-15.53625 1.81,-9.01875 -4.54625,-12.5 -4.99625,-6.57375 -0.34375,4.53 -0.7425,4.01625 -1.19875,5.37875 -0.99875,2.9875 -4.7975,4.6175 -6.19625,0.19875 -1.2,-3.78625 -12.295,-6.5725 -13.29375,4.3825"
         id="path4234"
         style="fill:#000000;fill-opacity:1;fill-rule:nonzero;stroke:none" />
    </g>
  </g>
</svg>
