<?xml-stylesheet type="text/css" href="./svg.css"?>
<svg onload="startup(evt)" onclick="see(0)" width="160" height="325" xmlns="http://www.w3.org/2000/svg">	
	<!--style type="text/css">
		<![CDATA[
			path {
				fill: #cfe8f0;				
				stroke: #000000;
				stroke-width: 5;
			}
			.beaker-lines-large {
				opacity: .4;
				stroke-width: 3;
			}
			.beaker-lines-small {
				opacity: .2;
				stroke: red;
				stroke-width: 3;
			}
		]]>
	</style-->
    <script>
        <![CDATA[
        var svgDoc;
        function startup(evt) {
            svgDoc=evt.target.ownerDocument;
            see(0);
        }
        function see(n) {
            var a="visibility"
            var e=svgDoc.getElementById("E"+n);
            var ega=e.getAttribute(a)
            if(ega=="hidden")
                e.setAttribute(a,"visible");
            else e.setAttribute(a, "hidden");
        }
        ]]>
    </script>
	
	<g>
		<title>Beaker - 4 - Readable from Source</title>
            
        <!-- main beaker shape -->    
		<path id="E0" class="beaker-body" d="
		M 50,25
		m 60,0
		v 200
		c 30,10 50,70 40,70
        h -140   
		c -10,0 10,-60 40,-70
		v -200
		"
		/>
        
        <!-- horizontal curves of beaker -->   
        <path class="beaker-body" d="
		M 50,25
	    a 30,10 0 1,1 0,.1	 
        m 102,266
        a 30,10 0 0,1 -144,0
        m 42,-66
        a 30,10 0 0,0 60,0
		"
		/>
		            
        <!-- large measuring lines -->
		<path class="beaker-lines-large" d="
		M 50,25
		m 0,30
		a 30,10 0 0,0 60,0	 
		m -60,30
		a 30,10 0 0,0 60,0	 
		m -60,30
		a 30,10 0 0,0 60,0
		m -60,30
		a 30,10 0 0,0 60,0	 
		m -60,30
		a 30,10 0 0,0 60,0
		m -60,30
		a 30,10 0 0,0 60,0	 
		"
		/>
			
        <!-- small measuring lines -->
		<path class="beaker-lines-small" d="
		M 50,25
		m 30,10
		m 0,10
		a 30,10 0 0,0 30,-10	 
		m -30,20
		a 30,10 0 0,0 30,-10	 
		m -30,30
		a 30,10 0 0,0 30,-10	 
		m -30,20
		a 30,10 0 0,0 30,-10	 
		m -30,30
		a 30,10 0 0,0 30,-10	 
		m -30,20
		a 30,10 0 0,0 30,-10	 
		m -30,30
		a 30,10 0 0,0 30,-10	 
		m -30,20
		a 30,10 0 0,0 30,-10	 
		m -30,30
		a 30,10 0 0,0 30,-10	 
		m -30,20
		a 30,10 0 0,0 30,-10	 
		m -30,30
		a 30,10 0 0,0 30,-10	 
		m -30,20
		a 30,10 0 0,0 30,-10	 
		m -30,30
		a 30,10 0 0,0 30,-10	 
		"
		/>
	</g>
</svg>