<svg width="1000" height="1000" xmlns="http://www.w3.org/2000/svg">
	<g>
		<title>Beaker - 4 - Readable from Source</title>
            
        <!-- main beaker shape -->    
		<path d="
		M 50,25
		m 60,0
		v 200
		c 30,10 50,70 40,70
        h -140   
		c -10,0 10,-60 40,-70
		v -200
		"
		stroke-linecap="null"
		stroke-linejoin="null"
		stroke-dasharray="null"
		stroke-width="5"
		stroke="#000000"
		fill="#cfe8f0"/>
        
        <!-- horizontal curves of beaker -->   
        <path d="
		M 50,25
	    a 30,10 0 1,1 0,.1	 
        m 102,266
        a 30,10 0 0,1 -144,0
        m 42,-66
        a 30,10 0 0,0 60,0
		"
		stroke-linecap="null"
		stroke-linejoin="null"
		stroke-dasharray="null"
		stroke-width="5"
		stroke="#000000"
		fill="#cfe8f0"/>
		            
        <!-- large measuring lines -->
		<path d="
		M 50,25
		m 0,30
		a 30,10 0 0,0 60,0	 
		m -60,30
		a 30,10 0 0,0 60,0	 
		m -60,30
		a 30,10 0 0,0 60,0
		m -60,30
		a 30,10 0 0,0 60,0	 
		m -60,30
		a 30,10 0 0,0 60,0
		m -60,30
		a 30,10 0 0,0 60,0	 
		"
		stroke-linecap="null"
		stroke-linejoin="null"
		stroke-dasharray="null"
		stroke-width="3"
		stroke="black"
		fill="none"
		opacity=".4"/>
			
        <!-- small measuring lines -->
		<path d="
		M 50,25
		m 30,10
		m 0,10
		a 30,10 0 0,0 30,-10	 
		m -30,20
		a 30,10 0 0,0 30,-10	 
		m -30,30
		a 30,10 0 0,0 30,-10	 
		m -30,20
		a 30,10 0 0,0 30,-10	 
		m -30,30
		a 30,10 0 0,0 30,-10	 
		m -30,20
		a 30,10 0 0,0 30,-10	 
		m -30,30
		a 30,10 0 0,0 30,-10	 
		m -30,20
		a 30,10 0 0,0 30,-10	 
		m -30,30
		a 30,10 0 0,0 30,-10	 
		m -30,20
		a 30,10 0 0,0 30,-10	 
		m -30,30
		a 30,10 0 0,0 30,-10	 
		m -30,20
		a 30,10 0 0,0 30,-10	 
		m -30,30
		a 30,10 0 0,0 30,-10	 
		"
		stroke-linecap="null"
		stroke-linejoin="null"
		stroke-dasharray="null"
		stroke-width="3"
		stroke="red"
		fill="none"
		opacity=".2"/>
	</g>
</svg>