<svg width="640" height="480" xmlns="http://www.w3.org/2000/svg">
	<g>
		<title>Layer 1</title>
		<path d="m159.205002,103.485001c2.027679,26.813385 9.719727,51.377457 21.015625,72.94722l21.015625,-32.783569l-6.070724,-2.243164l-8.40625,-2.98819l4.391937,-7.659195l15.408722,-27.273102l-47.354935,0zm64.540955,0l-15.224014,26.899582l6.538651,2.335526l8.874176,3.176956l-5.044571,7.843948l-30.263321,47.354996c21.770874,33.048172 53.614487,55.86377 90.133163,60.805725l0,96.670013l-59.775436,0l0,23.911346l149.440628,0l0,-23.911346l-59.77536,0l0,-96.670013c63.703857,-8.51918 113.685547,-70.777939 119.555145,-148.416733l-204.459061,0l0,0z" stroke-linecap="null" stroke-linejoin="null" stroke-dasharray="null" stroke-width="5" stroke="#000000" fill="red"/>
	</g>
	<g>
		<title>Layer 2</title>
		
		m or M - moveto
		
		<path d="
		M 0
		
		103.485001c2.027679
		26.813385 9.719727
		51.377457 21.015625
		72.94722l21.015625
		-32.783569l-6.070724
		-2.243164l-8.40625
		-2.98819l4.391937
		-7.659195l15.408722
		-27.273102l-47.354935
		0zm64.540955
		0l-15.224014
		26.899582l6.538651
		2.335526l8.874176
		3.176956l-5.044571
		7.843948l-30.263321
		47.354996c21.770874
		33.048172 53.614487
		55.86377 90.133163
		60.805725l0
		96.670013l-59.775436
		0l0
		23.911346l149.440628
		0l0
		-23.911346l-59.77536
		0l0
		-96.670013c63.703857
		-8.51918 113.685547
		-70.777939 119.555145
		-148.416733l-204.459061
		0l0
		0z" stroke-linecap="null" stroke-linejoin="null" stroke-dasharray="null" stroke-width="5" stroke="#000000" fill="green"/>
	</g>
</svg>